<svg width="32" height="32" viewBox="0 0 32 32" fill="none" xmlns="http://www.w3.org/2000/svg">
<path fill-rule="evenodd" clip-rule="evenodd" d="M8.2876 11.1369V21.0864C8.2876 22.8066 10.8584 24.1559 14.1409 24.1559C17.4235 24.1559 19.9936 22.8073 19.9936 21.0864V11.1369C19.9936 9.41669 17.4229 8.06738 14.1409 8.06738C10.859 8.06738 8.2876 9.41669 8.2876 11.1369ZM9.04965 15.985C10.0467 16.9105 11.9291 17.5229 14.1389 17.5229C16.3488 17.5229 18.2325 16.9105 19.2282 15.985V17.7699C19.2282 18.8516 17.1376 20.0571 14.1389 20.0571C11.1403 20.0571 9.04965 18.8516 9.04965 17.7699V15.985ZM9.04965 14.4548C9.04965 15.5364 11.1383 16.7419 14.1389 16.7419L14.1409 16.7412C17.1409 16.7412 19.2316 15.5357 19.2282 14.4541V12.6692C18.2325 13.5947 16.3488 14.2077 14.1389 14.2077C11.9291 14.2077 10.0467 13.5947 9.04965 12.6692V14.4548ZM14.1389 23.375C11.1383 23.375 9.04965 22.1694 9.04965 21.0878V19.3022C10.0467 20.2277 11.9291 20.8401 14.1389 20.8401C16.3488 20.8401 18.2325 20.2277 19.2282 19.3022V21.0871C19.2316 22.1688 17.1409 23.3743 14.1409 23.3743L14.1389 23.375ZM19.2282 11.1383C19.2282 10.0566 17.1389 8.8511 14.1389 8.8511L14.1409 8.85041C11.1403 8.85041 9.04965 10.0566 9.04965 11.1383C9.04965 12.2199 11.1403 13.4254 14.1389 13.4254C17.1376 13.4254 19.2282 12.2199 19.2282 11.1383Z" fill="white"/>
<path d="M9.04965 15.985L9.38979 15.6186L8.54965 14.8388V15.985H9.04965ZM19.2282 15.985H19.7282V14.8377L18.8878 15.6188L19.2282 15.985ZM14.1389 16.7419V17.2419H14.2222L14.3011 17.2149L14.1389 16.7419ZM14.1409 16.7412V16.2412H14.0576L13.9788 16.2682L14.1409 16.7412ZM19.2282 14.4541H18.7282L18.7282 14.4556L19.2282 14.4541ZM19.2282 12.6692H19.7282V11.5219L18.8878 12.303L19.2282 12.6692ZM9.04965 12.6692L9.38979 12.3027L8.54965 11.523V12.6692H9.04965ZM14.1389 23.375V23.875H14.2221L14.3009 23.848L14.1389 23.375ZM9.04965 19.3022L9.38979 18.9358L8.54965 18.156V19.3022H9.04965ZM19.2282 19.3022H19.7282V18.1549L18.8878 18.936L19.2282 19.3022ZM19.2282 21.0871H18.7282L18.7282 21.0887L19.2282 21.0871ZM14.1409 23.3743V22.8743H14.0577L13.979 22.9012L14.1409 23.3743ZM14.1389 8.8511L13.9769 8.37808L14.1389 9.3511V8.8511ZM14.1409 8.85041L14.303 9.32343L14.1409 8.35041V8.85041ZM8.7876 21.0864V11.1369H7.7876V21.0864H8.7876ZM14.1409 23.6559C12.5613 23.6559 11.1816 23.3302 10.2156 22.8235C9.2307 22.3069 8.7876 21.6724 8.7876 21.0864H7.7876C7.7876 22.2206 8.62988 23.1209 9.75104 23.709C10.891 24.307 12.438 24.6559 14.1409 24.6559V23.6559ZM19.4936 21.0864C19.4936 21.6728 19.0506 22.3073 18.066 22.8237C17.1001 23.3303 15.7206 23.6559 14.1409 23.6559V24.6559C15.8438 24.6559 17.3907 24.3072 18.5305 23.7093C19.6516 23.1212 20.4936 22.2209 20.4936 21.0864H19.4936ZM19.4936 11.1369V21.0864H20.4936V11.1369H19.4936ZM14.1409 8.56738C15.7202 8.56738 17.0998 8.8931 18.0657 9.39984C19.0505 9.91644 19.4936 10.5509 19.4936 11.1369H20.4936C20.4936 10.0027 19.6514 9.10239 18.5303 8.51429C17.3904 7.91632 15.8436 7.56738 14.1409 7.56738V8.56738ZM8.7876 11.1369C8.7876 10.5509 9.2308 9.91648 10.2158 9.39985C11.1819 8.8931 12.5616 8.56738 14.1409 8.56738V7.56738C12.4383 7.56738 10.8913 7.91632 9.75131 8.51427C8.63011 9.10234 7.7876 10.0026 7.7876 11.1369H8.7876ZM14.1389 17.0229C11.9966 17.0229 10.2589 16.4252 9.38979 15.6186L8.70951 16.3515C9.83462 17.3958 11.8617 18.0229 14.1389 18.0229V17.0229ZM18.8878 15.6188C18.0203 16.4251 16.2815 17.0229 14.1389 17.0229V18.0229C16.416 18.0229 18.4447 17.3959 19.5686 16.3513L18.8878 15.6188ZM19.7282 17.7699V15.985H18.7282V17.7699H19.7282ZM14.1389 20.5571C15.7005 20.5571 17.0499 20.2439 18.0268 19.7687C18.5144 19.5316 18.9265 19.2455 19.2234 18.9213C19.5185 18.5992 19.7282 18.206 19.7282 17.7699H18.7282C18.7282 17.8746 18.6766 18.0378 18.486 18.2459C18.2972 18.452 17.9993 18.6701 17.5894 18.8695C16.7713 19.2674 15.5761 19.5571 14.1389 19.5571V20.5571ZM8.54965 17.7699C8.54965 18.206 8.75938 18.5992 9.05446 18.9213C9.35139 19.2455 9.76351 19.5316 10.2511 19.7687C11.228 20.2439 12.5774 20.5571 14.1389 20.5571V19.5571C12.7018 19.5571 11.5066 19.2674 10.6885 18.8695C10.2786 18.6701 9.98064 18.452 9.79187 18.2459C9.60125 18.0378 9.54965 17.8746 9.54965 17.7699H8.54965ZM8.54965 15.985V17.7699H9.54965V15.985H8.54965ZM14.1389 16.2419C12.7008 16.2419 11.5056 15.9523 10.6878 15.5544C10.278 15.355 9.98031 15.1369 9.79169 14.9309C9.60127 14.7228 9.54965 14.5596 9.54965 14.4548H8.54965C8.54965 14.8907 8.75911 15.2838 9.05407 15.6061C9.35085 15.9303 9.7628 16.2164 10.2503 16.4536C11.227 16.9288 12.5764 17.2419 14.1389 17.2419V16.2419ZM13.9788 16.2682L13.9768 16.2689L14.3011 17.2149L14.3031 17.2142L13.9788 16.2682ZM18.7282 14.4556C18.7285 14.5599 18.6776 14.7226 18.4876 14.9304C18.2994 15.1363 18.0018 15.3543 17.5921 15.5537C16.7743 15.9516 15.5788 16.2412 14.1409 16.2412V17.2412C15.7031 17.2412 17.0529 16.9281 18.0296 16.4529C18.5171 16.2157 18.9291 15.9295 19.2256 15.6052C19.5204 15.2827 19.7296 14.8891 19.7282 14.4525L18.7282 14.4556ZM18.7282 12.6692V14.4541H19.7282V12.6692H18.7282ZM14.1389 14.7077C16.4161 14.7077 18.4447 14.08 19.5686 13.0355L18.8878 12.303C18.0202 13.1094 16.2814 13.7077 14.1389 13.7077V14.7077ZM8.70951 13.0357C9.83454 14.0799 11.8615 14.7077 14.1389 14.7077V13.7077C11.9967 13.7077 10.259 13.1095 9.38979 12.3027L8.70951 13.0357ZM9.54965 14.4548V12.6692H8.54965V14.4548H9.54965ZM8.54965 21.0878C8.54965 21.5238 8.75911 21.9169 9.05407 22.2391C9.35085 22.5633 9.7628 22.8494 10.2503 23.0866C11.227 23.5618 12.5764 23.875 14.1389 23.875V22.875C12.7008 22.875 11.5056 22.5853 10.6878 22.1874C10.278 21.988 9.98031 21.7699 9.79169 21.5639C9.60127 21.3559 9.54965 21.1927 9.54965 21.0878H8.54965ZM8.54965 19.3022V21.0878H9.54965V19.3022H8.54965ZM14.1389 20.3401C11.9966 20.3401 10.2589 19.7424 9.38979 18.9358L8.70951 19.6687C9.83462 20.713 11.8617 21.3401 14.1389 21.3401V20.3401ZM18.8878 18.936C18.0203 19.7423 16.2815 20.3401 14.1389 20.3401V21.3401C16.416 21.3401 18.4447 20.7131 19.5686 19.6685L18.8878 18.936ZM19.7282 21.0871V19.3022H18.7282V21.0871H19.7282ZM14.1409 23.8743C15.7031 23.8743 17.0529 23.5612 18.0296 23.0859C18.5171 22.8487 18.9291 22.5626 19.2256 22.2382C19.5204 21.9158 19.7296 21.5221 19.7282 21.0856L18.7282 21.0887C18.7285 21.1929 18.6776 21.3556 18.4876 21.5634C18.2994 21.7693 18.0018 21.9873 17.5921 22.1867C16.7743 22.5846 15.5788 22.8743 14.1409 22.8743V23.8743ZM14.3009 23.848L14.3029 23.8473L13.979 22.9012L13.977 22.9019L14.3009 23.848ZM14.1389 9.3511C15.5768 9.3511 16.7719 9.64073 17.5898 10.0387C17.9996 10.2381 18.2975 10.4562 18.4861 10.6622C18.6766 10.8703 18.7282 11.0334 18.7282 11.1383H19.7282C19.7282 10.7022 19.5187 10.3091 19.2237 9.98692C18.9268 9.66273 18.5148 9.37664 18.0273 9.13945C17.0506 8.66422 15.7011 8.3511 14.1389 8.3511V9.3511ZM13.9789 8.37739L13.9769 8.37808L14.301 9.32412L14.303 9.32343L13.9789 8.37739ZM9.54965 11.1383C9.54965 11.0335 9.60126 10.8703 9.79192 10.6622C9.98073 10.456 10.2787 10.2378 10.6888 10.0383C11.5071 9.6402 12.7028 9.35041 14.1409 9.35041V8.35041C12.5784 8.35041 11.2285 8.66371 10.2513 9.1391C9.76361 9.37637 9.35143 9.66253 9.05448 9.98675C8.75937 10.309 8.54965 10.7022 8.54965 11.1383H9.54965ZM14.1389 12.9254C12.7018 12.9254 11.5066 12.6358 10.6885 12.2378C10.2786 12.0384 9.98064 11.8203 9.79187 11.6142C9.60125 11.4061 9.54965 11.243 9.54965 11.1383H8.54965C8.54965 11.5744 8.75938 11.9675 9.05446 12.2897C9.35139 12.6138 9.76351 12.8999 10.2511 13.1371C11.228 13.6123 12.5774 13.9254 14.1389 13.9254V12.9254ZM18.7282 11.1383C18.7282 11.243 18.6766 11.4061 18.486 11.6142C18.2972 11.8203 17.9993 12.0384 17.5894 12.2378C16.7713 12.6358 15.5761 12.9254 14.1389 12.9254V13.9254C15.7005 13.9254 17.0499 13.6123 18.0268 13.1371C18.5144 12.8999 18.9265 12.6138 19.2234 12.2897C19.5185 11.9675 19.7282 11.5744 19.7282 11.1383H18.7282Z" fill="#C2C2C2"/>
<path d="M22.2546 25.7584C17.9284 29.5466 11.6505 29.8301 7.01757 26.4465H10.2466C10.457 26.4465 10.6276 26.2712 10.6276 26.0549C10.6276 25.8387 10.457 25.6634 10.2466 25.6634H5.90663C5.90143 25.6643 5.89629 25.6654 5.89123 25.6669C5.86549 25.6691 5.84009 25.6744 5.81556 25.6827C5.79261 25.6866 5.77015 25.693 5.74859 25.702C5.7291 25.7126 5.7107 25.7253 5.69368 25.7398C5.66935 25.7541 5.64685 25.7714 5.62672 25.7914C5.62672 25.7949 5.61801 25.7969 5.61466 25.801C5.60466 25.8166 5.59593 25.8329 5.58855 25.8499C5.57362 25.8715 5.56083 25.8945 5.55038 25.9187C5.54234 25.9454 5.53696 25.9728 5.53431 26.0006C5.52961 26.0177 5.52625 26.0352 5.52426 26.0529V30.5116C5.5184 30.6553 5.58965 30.7907 5.70985 30.8643C5.83005 30.9379 5.97986 30.9379 6.10006 30.8643C6.22026 30.7907 6.29151 30.6553 6.28565 30.5116V26.8559C11.207 30.6788 18.0536 30.4705 22.7461 26.3549C22.8517 26.2649 22.9021 26.1235 22.8779 25.9847C22.8538 25.8459 22.7589 25.7312 22.6294 25.6844C22.5 25.6375 22.3561 25.6658 22.2526 25.7584H22.2546Z" fill="white" stroke="#C2C2C2"/>
<path d="M9.00357 4.42337L7.39643 7.28713C7.2913 7.4743 7.35364 7.71359 7.53571 7.82176C7.59346 7.85626 7.6591 7.87431 7.72589 7.87406C7.86204 7.87433 7.98795 7.7998 8.05603 7.67864L10.2257 3.81718C10.2257 3.81305 10.2257 3.80892 10.2297 3.80479C10.2425 3.77721 10.252 3.74808 10.2578 3.71809C10.2645 3.6986 10.2697 3.67858 10.2732 3.65823C10.2737 3.6352 10.2721 3.61217 10.2685 3.58942C10.2672 3.56065 10.2632 3.53207 10.2565 3.5041C10.2565 3.49997 10.2565 3.49516 10.2565 3.49103C10.2495 3.47725 10.2416 3.46392 10.233 3.45112C10.2208 3.42234 10.2051 3.39528 10.1862 3.37062C10.1712 3.35468 10.1551 3.33996 10.1379 3.32658C10.1226 3.31041 10.106 3.29545 10.0884 3.28185L6.32701 1.0525C6.14468 0.944383 5.91158 1.00861 5.80636 1.19596C5.70114 1.38331 5.76365 1.62282 5.94598 1.73094L9.02634 3.55984C4.19688 5.67979 1 10.5864 1 16.0222C1.00261 16.8394 1.07724 17.6547 1.22299 18.458C1.25649 18.6439 1.41404 18.7789 1.59799 18.7793C1.62044 18.7792 1.64285 18.7772 1.66496 18.7731C1.76438 18.7547 1.85258 18.6964 1.91012 18.6111C1.96766 18.5258 1.9898 18.4204 1.97165 18.3183C1.83442 17.561 1.76427 16.7925 1.76205 16.0222C1.76205 11.0199 4.63214 6.49447 9.00357 4.42337Z" fill="white" stroke="#C2C2C2"/>
<path d="M30.9024 15.9609C30.8522 15.8707 30.769 15.8047 30.6713 15.7779C30.5736 15.751 30.4694 15.7654 30.3821 15.8178L27.2937 17.6488C27.3651 17.1096 27.4036 16.5663 27.4089 16.0222C27.4089 10.3112 23.8859 5.18225 18.6419 3.25633C18.5109 3.1946 18.3571 3.21413 18.2447 3.30681C18.1322 3.39948 18.0803 3.54943 18.1105 3.69426C18.1407 3.8391 18.2479 3.95401 18.3874 3.9912C23.3267 5.80633 26.6468 10.64 26.6468 16.0222C26.6468 16.4089 26.6254 16.8011 26.5865 17.2008L24.974 14.3309C24.8658 14.1505 24.6376 14.0913 24.4591 14.1973C24.2806 14.3033 24.2164 14.536 24.3144 14.7224L26.4841 18.5832V18.5866C26.5166 18.6434 26.5627 18.6908 26.618 18.7242C26.626 18.729 26.6354 18.7304 26.6435 18.7345C26.6733 18.7525 26.7055 18.7658 26.7392 18.7738C26.7613 18.7778 26.7837 18.7799 26.8062 18.78C26.8729 18.7798 26.9385 18.7618 26.9964 18.7277L30.7544 16.4983C30.844 16.4479 30.9102 16.3625 30.938 16.2615C30.9659 16.1604 30.953 16.0521 30.9024 15.9609Z" fill="white" stroke="#C2C2C2"/>
</svg>
