<svg width="34" height="30" viewBox="0 0 34 30" fill="none" xmlns="http://www.w3.org/2000/svg">
<path fill-rule="evenodd" clip-rule="evenodd" d="M32.0894 3.14961V11.8583C33.1654 11.9331 34.0022 12.9057 34 14.0787V19.0709C33.9963 20.221 33.1861 21.1777 32.1328 21.2756V26.8504C32.1328 28.5899 30.8367 30 29.238 30H2.89485C1.29607 30 0 28.5899 0 26.8504V3.14961C0 1.41013 1.29607 0 2.89485 0H29.1945C30.7933 0 32.0894 1.41013 32.0894 3.14961ZM29.238 1.5748H2.89485C2.09546 1.5748 1.44742 2.27987 1.44742 3.14961V3.65354C1.88556 3.3717 2.38587 3.22473 2.89485 3.22835H29.238C29.7469 3.22473 30.2473 3.3717 30.6854 3.65354V3.14961C30.6854 2.27987 30.0374 1.5748 29.238 1.5748ZM29.238 28.3465H2.89485C2.09546 28.3465 1.44742 27.6414 1.44742 26.7717V6.29921C1.44742 5.42947 2.09546 4.72441 2.89485 4.72441H29.238C30.0374 4.72441 30.6854 5.42947 30.6854 6.29921V11.8425H23.8246C21.4264 11.8425 19.4823 13.9577 19.4823 16.5669C19.4823 19.1761 21.4264 21.2913 23.8246 21.2913H30.642V26.8504C30.6045 27.6713 29.9931 28.3228 29.238 28.3465ZM31.9012 19.685C32.237 19.685 32.5091 19.3889 32.5091 19.0236L32.4512 14.0472C32.4512 13.682 32.1791 13.3858 31.8433 13.3858H23.8246C22.2258 13.3858 20.9298 14.796 20.9298 16.5354C20.9298 18.2749 22.2258 19.685 23.8246 19.685H31.9012Z" fill="currentColor"/>
<path d="M10.0002 23V11" stroke="currentColor" stroke-width="1.6" stroke-linecap="round" stroke-linejoin="round"/>
<path d="M5 17L10 11L15 17" stroke="currentColor" stroke-width="1.6" stroke-linecap="round" stroke-linejoin="round"/>
</svg>
