<svg width="38" height="36" viewBox="0 0 38 36" fill="none" xmlns="http://www.w3.org/2000/svg">
<path d="M37 18C37 27.3386 28.9928 35 19 35C9.00724 35 1 27.3386 1 18C1 8.66142 9.00724 1 19 1C28.9928 1 37 8.66142 37 18Z" stroke="currentColor" stroke-width="2"/>
<path d="M17.641 27.3V8.62H19.841V27.3H17.641ZM21.461 13.38C21.181 13.26 20.8943 13.16 20.601 13.08C20.321 13 20.0343 12.94 19.741 12.9C19.4477 12.86 19.1543 12.84 18.861 12.84C18.6343 12.84 18.3877 12.8667 18.121 12.92C17.8677 12.96 17.621 13.0333 17.381 13.14C17.1543 13.2467 16.961 13.3933 16.801 13.58C16.6543 13.7667 16.581 14 16.581 14.28C16.581 14.56 16.6743 14.8133 16.861 15.04C17.0477 15.2533 17.301 15.4533 17.621 15.64C17.9543 15.8267 18.321 16.0133 18.721 16.2C19.1343 16.3733 19.5543 16.5667 19.981 16.78C20.4077 16.98 20.821 17.2067 21.221 17.46C21.6343 17.7133 22.001 18.0067 22.321 18.34C22.6543 18.6733 22.9143 19.06 23.101 19.5C23.301 19.94 23.401 20.4467 23.401 21.02C23.401 21.7667 23.261 22.4067 22.981 22.94C22.7143 23.4733 22.3477 23.9133 21.881 24.26C21.4143 24.5933 20.8743 24.84 20.261 25C19.661 25.16 19.0343 25.24 18.381 25.24C17.7943 25.24 17.2143 25.16 16.641 25C16.081 24.8533 15.5477 24.6333 15.041 24.34C14.5477 24.0467 14.1143 23.68 13.741 23.24L14.961 21.76C15.2543 22.0667 15.5877 22.3267 15.961 22.54C16.3343 22.74 16.7277 22.8933 17.141 23C17.5677 23.1067 17.9943 23.16 18.421 23.16C18.741 23.16 19.0543 23.12 19.361 23.04C19.6677 22.9467 19.941 22.8133 20.181 22.64C20.4343 22.4667 20.6343 22.2467 20.781 21.98C20.941 21.7133 21.021 21.4 21.021 21.04C21.021 20.68 20.921 20.3667 20.721 20.1C20.5343 19.82 20.281 19.5733 19.961 19.36C19.641 19.1333 19.281 18.9267 18.881 18.74C18.4943 18.54 18.0877 18.3467 17.661 18.16C17.2343 17.96 16.821 17.7467 16.421 17.52C16.0343 17.28 15.681 17.0133 15.361 16.72C15.041 16.4133 14.7877 16.0667 14.601 15.68C14.4143 15.28 14.321 14.82 14.321 14.3C14.321 13.66 14.461 13.12 14.741 12.68C15.021 12.2267 15.3877 11.8667 15.841 11.6C16.2943 11.32 16.7877 11.12 17.321 11C17.8677 10.8667 18.3943 10.8 18.901 10.8C19.261 10.8 19.621 10.8267 19.981 10.88C20.3543 10.9333 20.7143 11.0133 21.061 11.12C21.421 11.2267 21.7677 11.3667 22.101 11.54L21.461 13.38Z" fill="currentColor"/>
</svg>
