<svg width="295" height="66" viewBox="0 0 295 66" fill="none" xmlns="http://www.w3.org/2000/svg">
<path d="M1.81885 64.6923L21.4397 21.5166C25.6133 12.3328 37.8359 10.4436 44.5874 17.9387L58.5254 33.4119C62.9128 38.2826 70.0925 39.4567 75.8029 36.2374L92.2244 26.9794C98.3566 23.5223 106.102 25.1562 110.315 30.7957L121.302 45.5011C128.516 55.1576 143.749 51.7896 146.22 39.9918L152.047 12.1697C154.504 0.436142 169.611 -2.98281 176.881 6.54917L188.069 21.2168C192.208 26.6439 199.658 28.2949 205.703 25.1248L222.73 16.1949C228.298 13.2747 235.13 14.4248 239.436 19.0072L262.42 43.4705C266.417 47.7258 272.636 49.0531 278.023 46.8008L293.985 40.127" stroke="#139602" stroke-width="2"/>
</svg>
