<svg width="18" height="20" viewBox="0 0 18 20" fill="none" xmlns="http://www.w3.org/2000/svg">
<path fill-rule="evenodd" clip-rule="evenodd" d="M8.44745 0.191498L0.347453 6.55513C0.128226 6.72737 0 6.99219 0 7.27273V17.2727C0 18.779 1.20883 20 2.7 20H6.3H11.7H15.3C16.7912 20 18 18.779 18 17.2727V7.27273C18 6.99219 17.8718 6.72737 17.6525 6.55513L9.55255 0.191498C9.22755 -0.0638327 8.77245 -0.0638327 8.44745 0.191498ZM12.6 18.1818H15.3C15.7971 18.1818 16.2 17.7748 16.2 17.2727V7.71727L9 2.06L1.8 7.71636V17.2727C1.8 17.7389 2.14744 18.1232 2.59504 18.1757L2.7 18.1818H5.4V10C5.4 9.53379 5.74744 9.14954 6.19504 9.09702L6.3 9.09091H11.7C12.1616 9.09091 12.542 9.44185 12.5939 9.89398L12.6 10V18.1818ZM7.2 18.1818V10.9091H10.8V18.1818H7.2Z" fill="#6CB8D6"/>
</svg>
