<svg width="18" height="20" viewBox="0 0 18 20" fill="none" xmlns="http://www.w3.org/2000/svg">
<path fill-rule="evenodd" clip-rule="evenodd" d="M9 0C11.7313 0 13.95 2.21342 13.95 4.94949C13.95 7.68557 11.7313 9.89899 9 9.89899C6.26868 9.89899 4.05 7.68557 4.05 4.94949C4.05 2.21342 6.26868 0 9 0ZM17.9818 16.6559C17.7601 14.0956 15.6268 12.1212 13.05 12.1212H4.95L4.7388 12.1258L4.53582 12.1393C1.9796 12.36 0 14.4892 0 17.0707V19.0909L0.00605496 19.1969C0.0580436 19.6491 0.438448 20 0.9 20H17.1L17.205 19.9939C17.6526 19.9414 18 19.5571 18 19.0909V17.0707L17.9953 16.8592L17.9818 16.6559ZM4.97055 13.9392L13.05 13.9394L13.2234 13.9441C14.8307 14.0309 16.122 15.317 16.1966 16.9231L16.2002 17.092L16.2 18.1818H1.8V17.0707L1.80468 16.8989C1.89165 15.3054 3.1807 14.0177 4.8005 13.9428L4.97055 13.9392ZM5.85 4.94949C5.85 3.22266 7.25782 1.81818 9 1.81818C10.7422 1.81818 12.15 3.22266 12.15 4.94949C12.15 6.67633 10.7422 8.08081 9 8.08081C7.25782 8.08081 5.85 6.67633 5.85 4.94949Z" fill="currentColor"/>
</svg>
