<svg width="46" height="46" viewBox="0 0 46 46" fill="none" xmlns="http://www.w3.org/2000/svg">
<path d="M17.8557 26.5946C17.8562 25.9991 18.3393 25.516 18.9348 25.5155L21.9261 25.5129L21.9287 22.5358C21.9292 21.9403 22.4123 21.4572 23.0077 21.4567C23.6032 21.4562 24.0854 21.9385 24.0849 22.5339L24.0823 25.511L27.0594 25.5085C27.6549 25.5079 28.1371 25.9902 28.1366 26.5856C28.1361 27.1811 27.653 27.6642 27.0576 27.6647L24.0805 27.6673L24.0779 30.6586C24.0773 31.254 23.5942 31.7371 22.9988 31.7376C22.4034 31.7381 21.9211 31.2559 21.9216 30.6604L21.9242 27.6692L18.9329 27.6718C18.3375 27.6723 17.8552 27.19 17.8557 26.5946Z" fill="white"/>
<path fill-rule="evenodd" clip-rule="evenodd" d="M24.1621 4.6526C23.4536 4.19913 22.546 4.19913 21.8374 4.6526L3.86869 16.1526C2.86566 16.7945 2.57294 18.1281 3.21488 19.1311C3.85682 20.1341 5.19033 20.4268 6.19336 19.7849L7.90602 18.6888V35.9375C7.90602 39.1131 10.4804 41.6875 13.656 41.6875H32.3435C35.5192 41.6875 38.0935 39.1131 38.0935 35.9375V18.6888L39.8062 19.7849C40.8092 20.4268 42.1427 20.1341 42.7847 19.1311C43.4266 18.1281 43.1339 16.7945 42.1309 16.1526L24.1621 4.6526ZM30.906 26.5938C30.906 30.9603 27.3663 34.5 22.9998 34.5C18.6333 34.5 15.0935 30.9603 15.0935 26.5938C15.0935 22.2272 18.6333 18.6875 22.9998 18.6875C27.3663 18.6875 30.906 22.2272 30.906 26.5938Z" fill="none"/>
<path d="M17.8557 26.5946C17.8562 25.9991 18.3393 25.516 18.9348 25.5155L21.9261 25.5129L21.9287 22.5358C21.9292 21.9403 22.4123 21.4572 23.0077 21.4567C23.6032 21.4562 24.0854 21.9385 24.0849 22.5339L24.0823 25.511L27.0594 25.5085C27.6549 25.5079 28.1371 25.9902 28.1366 26.5856C28.1361 27.1811 27.653 27.6642 27.0576 27.6647L24.0805 27.6673L24.0779 30.6586C24.0773 31.254 23.5942 31.7371 22.9988 31.7376C22.4034 31.7381 21.9211 31.2559 21.9216 30.6604L21.9242 27.6692L18.9329 27.6718C18.3375 27.6723 17.8552 27.19 17.8557 26.5946Z" stroke="currentColor" stroke-linecap="round" stroke-linejoin="round"/>
<path fill-rule="evenodd" clip-rule="evenodd" d="M24.1621 4.6526C23.4536 4.19913 22.546 4.19913 21.8374 4.6526L3.86869 16.1526C2.86566 16.7945 2.57294 18.1281 3.21488 19.1311C3.85682 20.1341 5.19033 20.4268 6.19336 19.7849L7.90602 18.6888V35.9375C7.90602 39.1131 10.4804 41.6875 13.656 41.6875H32.3435C35.5192 41.6875 38.0935 39.1131 38.0935 35.9375V18.6888L39.8062 19.7849C40.8092 20.4268 42.1427 20.1341 42.7847 19.1311C43.4266 18.1281 43.1339 16.7945 42.1309 16.1526L24.1621 4.6526ZM30.906 26.5938C30.906 30.9603 27.3663 34.5 22.9998 34.5C18.6333 34.5 15.0935 30.9603 15.0935 26.5938C15.0935 22.2272 18.6333 18.6875 22.9998 18.6875C27.3663 18.6875 30.906 22.2272 30.906 26.5938Z" stroke="currentColor" stroke-linecap="round" stroke-linejoin="round"/>
</svg>
